<svg xmlns="http://www.w3.org/2000/svg" width="104" height="46" viewBox="0 0 104 46"><g fill="none" fill-rule="evenodd" opacity=".46"><g fill-rule="nonzero" transform="translate(60 10)"><path fill="#E5E5EA" d="M17,0 L40,0 C42.209139,0 44,1.790861 44,4 L44,32 C44,34.209139 42.209139,36 40,36 L4,36 C1.790861,36 0,34.209139 0,32 L0,30 L1,30 L1,32 C1,33.5976809 2.24891996,34.9036609 3.82372721,34.9949073 L4,35 L40,35 C41.5976809,35 42.9036609,33.75108 42.9949073,32.1762728 L43,32 L43,4 C43,2.40231912 41.75108,1.09633912 40.1762728,1.00509269 L40,1 L17,1 L17,0 Z"/><path fill="#C5C6C7" d="M21,9 L21,27 L16.8737865,27.0007613 C16.9355797,26.7608745 16.9756782,26.5122749 16.9918654,26.2571791 L17,26 L16.9997865,9 L21,9 Z"/><polygon fill="#D9D9D9" points="26 18 22 18 22 27 26 27"/><polygon fill="#E5E5EA" points="32 23 27 23 27 27 32 27"/><polygon fill="#E5E5EA" points="32 18 27 18 27 22 32 22"/><polygon fill="#D9D9D9" points="32 9 22 9 22 17 32 17"/></g><g fill-rule="nonzero" transform="translate(0 10)"><path fill="#E5E5EA" d="M44,30 L44,32 C44,34.209139 42.209139,36 40,36 L4,36 C1.790861,36 0,34.209139 0,32 L0,4 C0,1.790861 1.790861,0 4,0 L27,0 L27,1 L4,1 C2.40231912,1 1.09633912,2.24891996 1.00509269,3.82372721 L1,4 L1,32 C1,33.5976809 2.24891996,34.9036609 3.82372721,34.9949073 L4,35 L40,35 C41.5976809,35 42.9036609,33.75108 42.9949073,32.1762728 L43,32 L43,30 L44,30 Z"/><g transform="matrix(-1 0 0 1 32 8)"><path fill="#E5E5EA" d="M7.49088855,0.317393442 L8.76101043,6.45950992 C7.29877139,6.97118377 6.25,8.36311505 6.25,10 C6.25,12.0710678 7.92893219,13.75 10,13.75 C11.5445601,13.75 12.8710193,12.8161995 13.4456235,11.4823526 L13.5300246,11.2684986 L19.6839139,12.5040464 C18.5724003,16.8150611 14.6581413,20 10,20 C8.15753882,20 6.4314569,19.5017211 4.94915868,18.6325678 C4.97172334,18.4951443 4.98679793,18.3554558 4.99434047,18.2138361 L5,18 L4.99993491,1.33785961 C5.68154258,0.943564009 6.41400922,0.62740983 7.18508527,0.401646632 L7.49088855,0.317393442 Z"/><path fill="#C5C6C7" d="M10,0 C15.4186428,0 19.8306786,4.30979721 19.9952415,9.68852584 L20,10 L13.75,10 C13.75,8.0028989 12.18885,6.3704239 10.220341,6.25636587 L10,6.25 L10,0 Z"/></g></g><g transform="translate(27)"><path fill="#C5C6C7" fill-rule="nonzero" d="M46,0 C48.209139,0 50,1.790861 50,4 L50,36 C50,38.209139 48.209139,40 46,40 L4,40 C1.790861,40 0,38.209139 0,36 L0,4 C0,1.790861 1.790861,0 4,0 L46,0 Z M46,1 L4,1 C2.40231912,1 1.09633912,2.24891996 1.00509269,3.82372721 L1,4 L1,36 C1,37.5976809 2.24891996,38.9036609 3.82372721,38.9949073 L4,39 L46,39 C47.5976809,39 48.9036609,37.75108 48.9949073,36.1762728 L49,36 L49,4 C49,2.40231912 47.75108,1.09633912 46.1762728,1.00509269 L46,1 Z"/><g transform="translate(13 8)"><rect width="3" height="9" x="1" y="15" fill="#C5C6C7" rx=".752"/><rect width="3" height="8" x="7" y="16" fill="#C5C6C7" rx=".752"/><rect width="3" height="12" x="13" y="12" fill="#C5C6C7" rx=".752"/><rect width="3" height="15" x="19" y="9" fill="#C5C6C7" rx=".752"/><path fill="#A6A6A6" fill-rule="nonzero" d="M15.1740335,0.269902413 C15.3523155,0.055964011 15.6312917,-0.0387293895 15.8973285,0.0145685364 L16.0287425,0.0536831948 L23.5287425,3.05368319 C23.9133301,3.20751825 24.1003921,3.64399608 23.946557,4.02858372 C23.8098148,4.3704394 23.4497498,4.55622538 23.1013153,4.48524744 L22.9716565,4.44639823 L15.9781995,1.64854071 L8.82636546,10.230179 C8.64808346,10.4441174 8.36910733,10.5388108 8.10307053,10.4855129 L7.9716565,10.4463982 L0.471656497,7.44639823 C0.0870688596,7.29256318 -0.0999930687,6.85608534 0.0538419864,6.47149771 C0.190584258,6.12964203 0.550649217,5.94385605 0.899083667,6.01483399 L1.02874251,6.05368319 L8.0221995,8.85004071 L15.1740335,0.269902413 Z"/></g></g></g></svg>